if (_typeface_js && _typeface_js.loadFace) _typeface_js.loadFace({"glyphs":{"2":{"ha":558,"x_min":0,"x_max":0,"o":"m 526 306 l 192 306 l 354 482 l 358 488 b 531 797 474 614 531 714 b 468 950 531 861 511 913 b 304 1007 428 988 372 1007 b 133 944 233 1007 174 986 b 69 775 93 904 69 847 l 69 768 l 139 768 b 178 897 139 824 151 867 b 296 947 208 931 247 947 b 411 904 346 947 383 932 b 460 794 444 878 460 836 b 263 478 460 729 394 625 b 214 424 242 454 226 436 l 56 243 l 526 243 z "},"4":{"ha":593,"x_min":0,"x_max":0,"o":"m 413 213 l 485 213 l 485 415 l 565 415 l 565 474 l 485 474 l 485 1022 l 56 415 l 413 415 z m 413 474 l 163 474 l 413 831 z "},"5":{"ha":576,"x_min":0,"x_max":0,"o":"m 196 717 l 254 954 l 515 954 l 515 1013 l 207 1013 l 110 629 l 132 628 b 200 668 150 646 175 660 b 289 683 228 679 257 683 b 426 633 347 683 393 665 b 478 499 460 600 478 556 b 426 353 478 438 463 390 b 294 299 393 318 350 299 b 188 329 254 299 217 307 b 110 422 158 349 133 379 l 56 382 b 151 271 82 333 114 297 b 292 236 192 247 236 236 b 478 308 368 236 429 261 b 549 503 525 358 549 422 b 482 678 549 574 526 632 b 307 743 439 719 381 743 b 254 738 290 743 271 740 b 196 717 233 733 215 725 z "},"6":{"ha":569,"x_min":0,"x_max":0,"o":"m 196 686 l 442 1018 l 385 1054 l 206 804 b 82 606 142 715 100 650 b 56 478 64 564 56 519 b 119 307 56 407 76 350 b 289 243 161 264 217 243 b 471 311 364 243 424 265 b 542 489 517 357 542 417 b 479 660 542 558 521 615 b 318 725 438 703 383 725 b 256 715 296 725 276 722 b 196 686 236 710 215 700 z m 126 482 b 175 615 126 538 143 581 b 300 665 207 649 249 665 b 422 617 350 665 390 650 b 468 492 453 585 468 543 b 422 356 468 435 453 389 b 299 304 392 321 350 304 b 174 353 247 304 206 319 b 126 482 142 385 126 429 z "},"7":{"ha":631,"x_min":0,"x_max":0,"o":"m 135 288 l 211 250 l 603 1047 l 56 1047 l 56 979 l 486 979 z "},"9":{"ha":581,"x_min":0,"x_max":0,"o":"m 407 611 l 153 274 l 211 236 l 399 490 b 522 685 458 571 499 638 b 553 824 542 733 553 779 b 488 997 553 897 532 954 b 314 1063 444 1042 386 1063 b 128 992 236 1063 175 1039 b 56 813 79 947 56 888 b 119 639 56 742 78 682 b 286 572 161 594 218 572 b 349 582 307 572 328 575 b 407 611 368 588 388 599 z m 478 818 b 432 685 478 763 463 718 b 301 633 397 650 354 633 b 179 681 251 633 208 647 b 131 810 146 715 131 756 b 179 950 131 869 146 914 b 304 1001 208 983 251 1001 b 432 953 357 1001 399 983 b 478 818 464 918 478 874 z "},"A":{"ha":1031,"x_min":0,"x_max":0,"o":"m 56 0 l 154 0 l 294 363 l 733 363 l 868 0 l 975 0 l 525 1111 z m 328 446 l 518 908 l 700 446 z "},"B":{"ha":750,"x_min":0,"x_max":0,"o":"m 56 0 l 250 0 b 483 18 360 0 438 6 b 600 83 528 31 567 53 b 671 188 632 113 656 147 b 694 326 686 228 694 274 b 633 503 694 397 674 457 b 467 589 593 550 538 578 b 593 671 521 601 563 629 b 640 822 625 713 640 763 b 611 956 640 871 631 915 b 526 1057 592 996 564 1029 b 431 1099 500 1076 468 1090 b 249 1111 394 1107 333 1111 l 56 1111 z m 157 617 l 157 1024 l 282 1024 b 481 976 376 1024 443 1007 b 536 814 517 944 536 890 b 479 663 536 743 517 693 b 282 617 440 632 375 617 z m 157 88 l 157 529 l 307 529 b 429 522 363 529 403 528 b 497 499 456 518 478 510 b 563 424 525 482 547 457 b 586 306 578 389 586 350 b 565 203 586 269 579 235 b 508 128 550 171 532 146 b 438 96 489 113 465 103 b 286 88 410 90 358 88 z "},"C":{"ha":1014,"x_min":0,"x_max":0,"o":"m 957 894 l 958 1000 b 800 1083 910 1038 858 1065 b 614 1111 743 1101 681 1111 b 394 1069 536 1111 464 1097 b 214 956 324 1043 264 1004 b 96 778 163 907 124 846 b 56 558 69 710 56 636 b 96 335 56 476 69 403 b 213 157 122 268 161 208 b 393 42 264 107 324 68 b 614 0 463 14 536 0 b 785 25 669 0 728 8 b 951 99 843 43 899 67 l 951 213 b 786 119 899 171 844 140 b 608 89 729 99 669 89 b 432 122 544 89 486 100 b 288 219 378 144 329 178 b 190 368 244 263 211 313 b 158 558 169 424 158 486 b 288 897 158 697 201 810 b 622 1026 374 983 485 1026 b 794 994 682 1026 740 1017 b 957 894 850 972 903 939 z "},"D":{"ha":965,"x_min":0,"x_max":0,"o":"m 56 0 l 263 0 b 558 24 399 0 497 7 b 722 103 619 39 675 65 b 861 288 782 149 829 210 b 910 551 893 365 910 453 b 861 817 910 651 893 739 b 721 1004 829 893 782 956 b 554 1082 675 1042 619 1068 b 228 1106 490 1097 382 1106 l 56 1106 z m 156 86 l 156 1022 l 265 1022 b 531 1003 392 1022 481 1015 b 661 936 582 989 625 967 b 767 776 707 894 743 840 b 803 554 790 713 803 639 b 767 332 803 471 790 397 b 661 171 743 269 707 215 b 540 106 628 140 588 119 b 297 86 492 93 411 86 z "},"E":{"ha":661,"x_min":0,"x_max":0,"o":"m 56 0 l 606 0 l 606 96 l 157 96 l 157 574 l 606 574 l 606 669 l 157 669 l 157 1017 l 606 1017 l 606 1111 l 56 1111 z "},"F":{"ha":661,"x_min":0,"x_max":0,"o":"m 56 0 l 157 0 l 157 575 l 589 575 l 589 669 l 157 669 l 157 1018 l 606 1018 l 606 1111 l 56 1111 z "},"G":{"ha":1169,"x_min":0,"x_max":0,"o":"m 974 821 l 1043 881 b 867 1054 1001 957 943 1014 b 590 1111 790 1092 697 1111 b 375 1069 511 1111 439 1097 b 201 949 310 1044 253 1003 b 93 772 154 899 117 839 b 56 556 68 703 56 632 b 204 153 56 390 104 256 b 594 0 303 51 433 0 b 975 143 756 0 882 47 b 1114 539 1067 238 1114 371 l 1114 551 l 643 551 l 643 468 l 1008 468 b 893 194 1006 356 967 264 b 603 89 818 124 722 89 b 431 122 540 89 482 100 b 288 218 378 142 329 175 b 192 367 246 261 213 311 b 160 546 171 422 160 483 b 283 890 160 688 200 801 b 603 1024 365 979 472 1024 b 815 972 681 1024 751 1006 b 974 821 878 939 931 888 z "},"H":{"ha":833,"x_min":0,"x_max":0,"o":""},"I":{"ha":208,"x_min":0,"x_max":0,"o":"m 56 0 l 153 0 l 153 1111 l 56 1111 z "},"J":{"ha":833,"x_min":0,"x_max":0,"o":""},"K":{"ha":833,"x_min":0,"x_max":0,"o":""},"L":{"ha":833,"x_min":0,"x_max":0,"o":""},"M":{"ha":603,"x_min":0,"x_max":0,"o":"m 493 757 l 469 761 l 314 413 l 165 761 l 142 757 l 83 307 l 146 307 l 175 594 l 314 274 l 457 594 l 485 307 l 547 307 z "},"N":{"ha":956,"x_min":0,"x_max":0,"o":"m 56 0 l 147 0 l 147 861 l 900 -31 l 900 1065 l 808 1065 l 808 218 l 56 1110 z "},"O":{"ha":833,"x_min":0,"x_max":0,"o":""},"P":{"ha":833,"x_min":0,"x_max":0,"o":""},"Q":{"ha":833,"x_min":0,"x_max":0,"o":""},"R":{"ha":833,"x_min":0,"x_max":0,"o":""},"S":{"ha":833,"x_min":0,"x_max":0,"o":""},"T":{"ha":833,"x_min":0,"x_max":0,"o":""},"U":{"ha":833,"x_min":0,"x_max":0,"o":""},"V":{"ha":819,"x_min":0,"x_max":0,"o":"m 401 0 l 792 1111 l 685 1111 l 403 240 l 139 1111 l 28 1111 z "},"W":{"ha":833,"x_min":0,"x_max":0,"o":""},"X":{"ha":833,"x_min":0,"x_max":0,"o":""},"Y":{"ha":833,"x_min":0,"x_max":0,"o":""},"Z":{"ha":833,"x_min":0,"x_max":0,"o":""},"a":{"ha":964,"x_min":0,"x_max":0,"o":"m 147 0 l 147 1111 l 56 1111 l 56 0 z m 814 29 l 908 29 l 908 725 l 814 725 l 814 600 b 711 711 790 646 757 688 b 560 750 668 739 618 750 b 328 643 465 750 386 715 b 238 375 268 575 238 486 b 329 103 238 260 268 168 b 569 -1 388 33 469 -1 b 717 40 625 -1 672 13 b 814 156 758 68 792 107 z m 346 371 b 407 586 346 460 364 532 b 582 663 449 635 508 663 b 753 590 651 663 708 636 b 815 388 794 542 815 472 b 751 168 815 297 794 221 b 581 92 708 115 650 92 b 404 163 504 92 446 114 b 346 371 363 211 346 281 z "},"b":{"ha":879,"x_min":0,"x_max":0,"o":"m 663 1029 b 685 972 663 1006 669 988 b 743 949 700 957 719 949 b 800 972 765 949 785 957 b 824 1029 815 988 824 1006 b 799 1085 824 1050 815 1069 b 743 1108 783 1100 764 1108 b 686 1085 721 1108 701 1100 b 663 1029 669 1069 663 1050 z m 56 154 b 147 39 74 104 104 67 b 299 0 192 13 240 0 b 481 57 375 0 436 18 b 549 210 526 96 549 146 b 511 338 549 263 536 307 b 357 424 485 371 432 399 b 222 486 290 449 244 468 b 192 558 203 504 192 529 b 225 631 192 588 203 613 b 307 661 246 650 272 661 b 399 635 343 661 374 651 b 454 560 426 617 444 592 l 543 610 b 457 713 526 654 494 689 b 314 750 417 738 368 750 b 151 693 247 750 193 732 b 90 550 111 656 90 608 b 133 438 90 503 103 465 b 288 346 161 406 214 375 b 310 338 292 343 299 342 b 450 203 404 301 450 257 b 415 119 450 167 439 140 b 318 88 390 100 358 88 b 213 119 276 88 240 100 b 146 206 183 138 161 167 z m 689 0 l 796 0 l 796 750 l 689 750 z "},"c":{"ha":1611,"x_min":0,"x_max":0,"o":"m 628 31 l 726 31 l 726 1111 l 628 1111 l 628 596 b 529 710 604 647 572 683 b 378 750 486 736 435 750 b 144 644 283 750 206 714 b 56 372 85 575 56 483 b 147 103 56 261 86 171 b 386 0 207 35 288 0 b 531 40 440 0 490 13 b 628 157 574 67 606 106 z m 1176 0 b 1322 29 1228 0 1276 10 b 1447 114 1368 49 1410 76 b 1528 233 1482 149 1510 188 b 1556 374 1547 276 1556 326 b 1526 519 1556 426 1547 474 b 1446 640 1508 565 1481 603 b 1322 719 1410 675 1368 701 b 1176 750 1276 739 1228 750 b 1035 719 1126 750 1081 739 b 913 640 990 701 947 675 b 832 519 879 603 850 565 b 804 374 813 474 804 426 b 831 232 804 325 813 276 b 911 114 849 188 878 147 b 1035 29 947 76 990 49 b 1176 0 1081 10 1126 0 z m 163 368 b 226 583 163 460 183 531 b 397 663 268 636 324 663 b 568 586 469 663 526 638 b 631 386 610 539 631 472 b 567 168 631 296 608 221 b 396 89 525 117 468 89 b 222 161 319 89 264 114 b 163 368 182 211 163 278 z m 1179 89 b 988 172 1104 89 1039 118 b 907 374 933 228 907 296 b 988 578 907 454 933 524 b 1179 660 1039 632 1104 660 b 1374 578 1257 660 1321 632 b 1453 374 1426 524 1453 454 b 1372 172 1453 296 1426 228 b 1179 89 1321 118 1256 89 z "},"d":{"ha":1189,"x_min":0,"x_max":0,"o":"m 671 840 l 739 818 l 1035 1011 l 913 1050 z m 140 603 l 140 753 l 35 753 l 35 0 l 140 0 l 140 371 b 206 590 140 458 163 532 b 367 678 250 649 303 678 b 403 675 378 678 390 678 l 438 667 l 472 765 b 426 778 458 771 443 775 b 382 782 413 781 396 782 b 253 742 333 782 290 768 b 140 603 215 715 179 668 z m 1160 375 l 1160 394 b 1074 653 1160 503 1131 589 b 842 750 1015 718 939 750 b 597 646 742 750 660 715 b 504 371 536 575 504 483 b 600 100 504 260 536 169 b 844 -1 661 33 744 -1 b 1035 49 919 -1 983 15 b 1164 204 1086 82 1129 135 l 1076 253 b 981 128 1050 197 1018 156 b 844 88 942 99 896 88 b 676 164 775 88 717 113 b 607 375 632 214 611 285 z m 1044 456 l 614 456 b 683 601 621 515 644 565 b 831 657 722 640 772 657 b 983 604 894 657 946 640 b 1044 456 1019 569 1040 521 z "},"e":{"ha":1478,"x_min":0,"x_max":0,"o":"m 1261 1029 b 1283 972 1261 1006 1268 988 b 1342 949 1299 957 1318 949 b 1399 972 1364 949 1383 957 b 1422 1029 1414 988 1422 1006 b 1397 1085 1422 1050 1414 1069 b 1342 1108 1382 1100 1363 1108 b 1285 1085 1319 1108 1300 1100 b 1261 1029 1268 1069 1261 1050 z m 160 0 l 160 394 b 211 615 160 494 176 568 b 372 686 246 663 299 686 b 506 633 432 686 476 668 b 549 465 535 597 549 542 l 549 0 l 651 0 l 651 394 b 701 617 651 496 668 569 b 860 686 735 663 788 686 b 994 631 919 686 964 668 b 1039 465 1024 593 1039 539 l 1039 0 l 1143 0 l 1143 507 b 1075 704 1143 590 1119 657 b 888 776 1029 753 967 776 b 736 740 829 776 779 764 b 626 629 693 715 656 678 b 538 739 606 678 575 714 b 397 776 499 764 451 776 b 257 739 344 776 297 764 b 160 632 217 715 185 679 l 160 749 l 56 749 l 56 0 z m 1288 0 l 1394 0 l 1394 750 l 1288 750 z "},"f":{"ha":1163,"x_min":0,"x_max":0,"o":"m 172 0 l 272 0 l 272 665 l 393 665 l 393 750 l 272 750 l 272 856 b 290 988 272 921 281 965 b 335 1025 299 1006 304 1022 b 369 1019 343 1026 358 1024 b 401 1008 379 1017 390 1013 l 418 1083 b 378 1094 406 1088 392 1090 b 335 1097 364 1097 350 1097 b 206 1042 272 1097 231 1078 b 172 799 183 1004 172 924 l 172 750 l 56 750 l 56 665 l 172 665 z m 1013 29 l 1107 29 l 1107 725 l 1013 725 l 1013 600 b 910 711 989 646 956 688 b 758 750 867 739 817 750 b 526 643 664 750 585 715 b 436 375 467 575 436 486 b 528 103 436 260 467 168 b 768 -1 586 33 668 -1 b 915 40 824 -1 871 13 b 1013 156 957 68 990 107 z m 544 371 b 606 586 544 460 563 532 b 781 663 647 635 707 663 b 951 590 850 663 907 636 b 1014 388 993 542 1014 472 b 950 168 1014 297 993 221 b 779 92 907 115 849 92 b 603 163 703 92 644 114 b 544 371 561 211 544 281 z "},"g":{"ha":1654,"x_min":0,"x_max":0,"o":"m 1599 0 l 1599 1111 l 1507 1111 l 1507 0 z m 56 154 b 147 39 74 104 104 67 b 299 0 192 13 240 0 b 481 57 375 0 436 18 b 549 210 526 96 549 146 b 511 338 549 263 536 307 b 357 424 485 371 432 399 b 222 486 290 449 244 468 b 192 558 203 504 192 529 b 225 631 192 588 203 613 b 307 661 246 650 272 661 b 399 635 343 661 374 651 b 454 560 426 617 444 592 l 543 610 b 457 713 526 654 494 689 b 314 750 417 738 368 750 b 151 693 247 750 193 732 b 90 550 111 656 90 608 b 133 438 90 503 103 465 b 288 346 161 406 214 375 b 310 338 292 343 299 342 b 450 203 404 301 450 257 b 415 119 450 167 439 140 b 318 88 390 100 358 88 b 213 119 276 88 240 100 b 146 206 183 138 161 167 z m 1001 0 b 1147 29 1053 0 1101 10 b 1272 114 1193 49 1235 76 b 1353 233 1307 149 1335 188 b 1381 374 1372 276 1381 326 b 1351 519 1381 426 1372 474 b 1271 640 1333 565 1306 603 b 1147 719 1235 675 1193 701 b 1001 750 1101 739 1053 750 b 860 719 951 750 906 739 b 738 640 815 701 772 675 b 657 519 704 603 675 565 b 629 374 638 474 629 426 b 656 232 629 325 638 276 b 736 114 674 188 703 147 b 860 29 772 76 815 49 b 1001 0 906 10 951 0 z m 1004 89 b 813 172 929 89 864 118 b 732 374 758 228 732 296 b 813 578 732 454 758 524 b 1004 660 864 632 929 660 b 1199 578 1082 660 1146 632 b 1278 374 1251 524 1278 454 b 1197 172 1278 296 1251 228 b 1004 89 1146 118 1081 89 z "},"h":{"ha":833,"x_min":0,"x_max":0,"o":""},"i":{"ha":833,"x_min":0,"x_max":0,"o":""},"j":{"ha":833,"x_min":0,"x_max":0,"o":""},"k":{"ha":833,"x_min":0,"x_max":0,"o":""},"l":{"ha":833,"x_min":0,"x_max":0,"o":""},"m":{"ha":703,"x_min":0,"x_max":0,"o":"m 139 363 l 139 567 b 164 682 139 618 147 657 b 247 718 181 707 210 718 b 318 690 278 718 301 710 b 339 604 332 674 339 643 l 339 363 l 393 363 l 393 567 b 418 682 393 621 401 657 b 501 718 438 707 463 718 b 571 690 532 718 554 708 b 594 604 585 671 594 642 l 594 363 l 647 363 l 647 625 b 613 728 647 669 635 703 b 515 765 589 753 554 765 b 438 747 485 765 458 758 b 379 689 414 733 394 714 b 333 746 368 714 354 733 b 260 765 314 758 288 765 b 189 746 232 765 210 758 b 139 690 167 733 151 714 l 139 750 l 83 750 l 83 363 z "},"n":{"ha":833,"x_min":0,"x_max":0,"o":""},"o":{"ha":833,"x_min":0,"x_max":0,"o":""},"p":{"ha":511,"x_min":0,"x_max":0,"o":"m 257 482 b 81 563 210 536 153 563 b -26 529 38 563 4 551 b -94 458 -53 517 -74 490 l -94 543 l -172 543 l -172 -226 l -169 -233 l -169 -240 l -94 -240 l -94 94 b -26 22 -74 63 -51 36 b 85 -10 7 0 40 -10 b 257 69 156 -10 210 15 b 322 276 299 117 322 192 b 257 482 322 361 297 435 z m 193 132 b 81 83 171 101 131 83 b -43 136 28 83 -17 103 b -93 281 -78 175 -93 218 b -47 421 -93 343 -79 383 b 74 469 -22 451 21 469 b 190 419 125 469 167 451 b 235 275 224 382 235 338 b 193 132 235 210 224 167 z m 408 -124 b 365 -106 396 -111 382 -106 b 322 -124 349 -106 335 -111 b 306 -165 311 -135 306 -149 b 322 -208 306 -182 311 -197 b 365 -225 335 -219 349 -225 b 408 -208 382 -225 396 -219 b 425 -165 419 -197 425 -182 b 408 -124 425 -149 419 -135 z "},"q":{"ha":833,"x_min":0,"x_max":0,"o":""},"r":{"ha":833,"x_min":0,"x_max":0,"o":""},"s":{"ha":833,"x_min":0,"x_max":0,"o":""},"t":{"ha":833,"x_min":0,"x_max":0,"o":""},"u":{"ha":833,"x_min":0,"x_max":0,"o":""},"v":{"ha":833,"x_min":0,"x_max":0,"o":""},"w":{"ha":833,"x_min":0,"x_max":0,"o":""},"x":{"ha":833,"x_min":0,"x_max":0,"o":""},"y":{"ha":833,"x_min":0,"x_max":0,"o":""},"z":{"ha":833,"x_min":0,"x_max":0,"o":""},".":{"ha":833,"x_min":0,"x_max":0,"o":""},",":{"ha":833,"x_min":0,"x_max":0,"o":""},":":{"ha":833,"x_min":0,"x_max":0,"o":"m 299 682 b 325 617 299 657 307 635 b 392 589 343 597 365 589 b 458 617 418 589 439 597 b 485 682 476 635 485 657 b 458 749 485 708 476 731 b 392 775 439 767 418 775 b 325 749 365 775 343 767 b 299 682 307 731 299 708 z m 299 68 b 325 1 299 42 307 19 b 392 -25 343 -17 365 -25 b 458 1 418 -25 439 -17 b 485 68 476 19 485 42 b 458 133 485 94 476 115 b 392 161 439 151 418 161 b 325 133 365 161 343 151 b 299 68 307 115 299 94 z "},"*":{"ha":833,"x_min":0,"x_max":0,"o":""},"/":{"ha":679,"x_min":0,"x_max":0,"o":"m 489 897 l 83 111 l 190 111 l 596 897 z "},"(":{"ha":358,"x_min":0,"x_max":0,"o":"m 247 1068 l 197 1096 b 99 842 153 1017 119 932 b 65 554 76 751 65 656 b 99 263 65 451 76 354 b 197 0 119 169 153 82 l 247 29 b 158 271 208 104 178 183 b 129 553 139 357 129 451 b 158 819 129 644 139 735 b 247 1068 178 906 208 989 z "},")":{"ha":358,"x_min":0,"x_max":0,"o":"m 65 1072 b 156 822 106 990 135 907 b 185 554 174 735 185 644 b 156 271 185 453 174 360 b 65 29 135 185 106 104 l 115 0 b 215 261 160 82 193 169 b 247 556 236 356 247 454 b 215 844 247 657 236 754 b 115 1099 193 933 160 1018 z "},"-":{"ha":714,"x_min":0,"x_max":0,"o":"m 115 1124 b 221 1111 144 1156 208 1150 l 192 524 b 363 606 228 564 308 606 b 547 369 468 606 547 496 b 244 7 547 204 363 136 b 164 -49 228 -6 203 -49 b 111 -6 125 -49 111 -35 z m 192 369 l 192 204 b 203 79 192 158 192 121 b 389 369 282 158 389 249 b 308 496 389 440 363 496 b 192 369 244 496 203 440 z "}," ":{"ha":278,"x_min":0,"x_max":0,"o":""},"†":{"ha":833,"x_min":0,"x_max":0,"o":""},"€":{"ha":1725,"x_min":0,"x_max":0,"o":"m 1611 29 l 1263 29 l 1432 208 l 1436 214 b 1614 526 1542 354 1614 444 b 1550 682 1614 592 1593 644 b 1379 740 1508 721 1450 740 b 1201 678 1306 740 1244 719 b 1135 506 1160 635 1135 579 l 1135 497 l 1206 497 b 1249 629 1206 554 1221 597 b 1371 679 1281 661 1321 679 b 1492 635 1422 679 1463 664 b 1540 524 1525 608 1540 567 b 1336 204 1540 458 1472 353 b 1286 149 1314 181 1299 163 l 1121 -33 l 1611 -33 z m 753 85 b 815 18 765 56 788 32 b 906 -11 840 -4 874 -11 b 1025 25 956 -11 994 0 b 1065 121 1050 50 1065 81 b 1042 201 1065 156 1054 182 b 944 254 1025 221 992 239 b 860 294 900 271 876 282 b 843 340 847 304 843 319 b 863 383 843 358 847 372 b 914 401 876 397 892 401 b 971 389 938 401 956 397 b 1006 340 990 376 999 360 l 1061 371 b 1006 438 1050 399 1032 422 b 917 460 981 451 954 460 b 815 425 876 460 843 446 b 778 331 790 399 778 371 b 804 264 778 304 788 282 b 900 207 824 244 856 224 b 915 201 901 206 906 206 b 1001 119 975 181 1001 149 b 981 67 1001 94 994 79 b 919 47 967 53 947 47 b 854 67 894 47 874 53 b 814 119 838 78 824 94 z m 0 83 b 60 14 10 53 29 31 b 153 -11 82 0 115 -11 b 267 26 199 -11 238 1 b 308 119 296 49 308 81 b 286 200 308 153 301 181 b 189 256 268 219 235 238 b 104 292 146 267 119 279 b 83 338 92 304 83 319 b 106 382 83 357 92 372 b 156 404 119 396 138 404 b 217 385 179 404 199 396 b 250 340 232 374 243 360 l 306 371 b 250 435 294 397 276 419 b 163 456 225 450 194 456 b 60 422 119 456 83 446 b 22 333 33 399 22 369 b 49 260 22 303 29 279 b 144 206 67 242 100 225 b 157 200 149 204 153 203 b 246 114 218 179 246 146 b 225 64 246 92 239 76 b 164 44 208 51 189 44 b 99 63 140 44 115 51 b 54 115 78 75 67 92 z m 417 442 l 357 442 l 357 194 b 404 40 357 125 372 75 b 529 -11 435 7 471 -11 b 653 40 588 -11 622 7 b 699 194 682 75 699 125 l 699 442 l 639 442 l 639 225 b 610 83 639 156 631 113 b 525 44 592 60 571 44 b 447 83 483 44 468 60 b 417 225 426 113 417 156 z "},"+":{"ha":651,"x_min":0,"x_max":0,"o":"m 404 129 b 381 104 404 118 394 104 b 354 129 367 104 354 118 l 354 328 l 243 286 l 243 71 b 217 46 243 57 229 46 b 193 71 201 46 193 57 l 193 267 l 147 251 b 140 250 146 250 142 250 b 111 279 125 250 111 263 l 111 357 b 131 382 111 369 117 381 l 193 406 l 193 625 l 147 610 b 140 606 146 606 142 606 b 111 635 125 606 111 619 l 111 717 b 131 742 111 728 117 736 l 193 763 l 193 978 b 217 1006 193 992 201 1006 b 243 978 229 1006 243 992 l 243 781 l 354 825 l 354 1038 b 381 1064 354 1050 367 1064 b 404 1038 394 1064 404 1050 l 404 842 l 447 857 b 457 860 453 860 457 860 b 485 829 472 860 485 847 l 485 750 b 468 724 485 739 479 729 l 404 703 l 404 482 l 447 500 l 457 500 b 485 475 472 500 485 488 l 485 390 b 468 367 485 382 479 374 l 404 347 z m 243 425 l 354 467 l 354 681 l 243 642 z "},"=":{"ha":596,"x_min":0,"x_max":0,"o":"m 111 1138 b 150 1147 125 1140 135 1147 b 193 1138 168 1147 179 1140 l 188 853 l 383 883 l 389 883 b 419 857 404 883 419 872 l 429 -35 b 389 -44 419 -37 404 -44 b 347 -35 372 -44 361 -37 l 353 250 l 157 219 l 150 219 b 125 243 135 219 125 229 z m 188 699 l 182 374 l 357 404 l 361 726 z "},">":{"ha":1069,"x_min":0,"x_max":0,"o":"m 406 374 l 167 56 l 903 371 l 903 383 l 167 696 z "},"<":{"ha":1069,"x_min":0,"x_max":0,"o":"m 167 381 l 167 368 l 903 56 l 664 378 l 903 696 z "},"¨":{"ha":833,"x_min":0,"x_max":0,"o":""},"ˆ":{"ha":833,"x_min":0,"x_max":0,"o":""},"˜":{"ha":1725,"x_min":0,"x_max":0,"o":"m 1611 29 l 1263 29 l 1432 208 l 1436 214 b 1614 526 1542 354 1614 444 b 1550 682 1614 592 1593 644 b 1379 740 1508 721 1450 740 b 1201 678 1306 740 1244 719 b 1135 506 1160 635 1135 579 l 1135 497 l 1206 497 b 1249 629 1206 554 1221 597 b 1371 679 1281 661 1321 679 b 1492 635 1422 679 1463 664 b 1540 524 1525 608 1540 567 b 1336 204 1540 458 1472 353 b 1286 149 1314 181 1299 163 l 1121 -33 l 1611 -33 z m 753 85 b 815 18 765 56 788 32 b 906 -11 840 -4 874 -11 b 1025 25 956 -11 994 0 b 1065 121 1050 50 1065 81 b 1042 201 1065 156 1054 182 b 944 254 1025 221 992 239 b 860 294 900 271 876 282 b 843 340 847 304 843 319 b 863 383 843 358 847 372 b 914 401 876 397 892 401 b 971 389 938 401 956 397 b 1006 340 990 376 999 360 l 1061 371 b 1006 438 1050 399 1032 422 b 917 460 981 451 954 460 b 815 425 876 460 843 446 b 778 331 790 399 778 371 b 804 264 778 304 788 282 b 900 207 824 244 856 224 b 915 201 901 206 906 206 b 1001 119 975 181 1001 149 b 981 67 1001 94 994 79 b 919 47 967 53 947 47 b 854 67 894 47 874 53 b 814 119 838 78 824 94 z m 0 83 b 60 14 10 53 29 31 b 153 -11 82 0 115 -11 b 267 26 199 -11 238 1 b 308 119 296 49 308 81 b 286 200 308 153 301 181 b 189 256 268 219 235 238 b 104 292 146 267 119 279 b 83 338 92 304 83 319 b 106 382 83 357 92 372 b 156 404 119 396 138 404 b 217 385 179 404 199 396 b 250 340 232 374 243 360 l 306 371 b 250 435 294 397 276 419 b 163 456 225 450 194 456 b 60 422 119 456 83 446 b 22 333 33 399 22 369 b 49 260 22 303 29 279 b 144 206 67 242 100 225 b 157 200 149 204 153 203 b 246 114 218 179 246 146 b 225 64 246 92 239 76 b 164 44 208 51 189 44 b 99 63 140 44 115 51 b 54 115 78 75 67 92 z m 417 442 l 357 442 l 357 194 b 404 40 357 125 372 75 b 529 -11 435 7 471 -11 b 653 40 588 -11 622 7 b 699 194 682 75 699 125 l 699 442 l 639 442 l 639 225 b 610 83 639 156 631 113 b 525 44 592 60 571 44 b 447 83 483 44 468 60 b 417 225 426 113 417 156 z "}}}
